<?xml version="1.0" encoding="utf-8"?>
<!-- Generator: Adobe Illustrator 19.1.1, SVG Export Plug-In . SVG Version: 6.00 Build 0)  -->
<svg version="1.1" id="Layer_1" xmlns="http://www.w3.org/2000/svg" xmlns:xlink="http://www.w3.org/1999/xlink" x="0px" y="0px"
	 viewBox="0 0 1200 1200" enable-background="new 0 0 1200 1200" xml:space="preserve">
<g>
	<g>
		<g>
			<path fill="#50BAC9" d="M854.858,1095.64C1029.688,1009.537,1150,829.61,1150,621.556c0-291.706-236.475-528.18-528.18-528.18
				c-291.706,0-528.18,236.475-528.18,528.18c0,208.054,120.312,387.98,295.142,474.083H854.858z"/>
			<path fill="#34AEBF" d="M1094.626,645.544l-6.089,127.877c-0.177,3.726-5.088,4.947-6.99,1.738L977.977,600.383
				c-1.965-3.315-7.051-1.88-6.993,1.973l3.376,224.35l0.073,14.165l-0.069-13.443c-0.002-0.477-0.096-0.949-0.275-1.391
				l-98-242.132c-1.35-3.336-6.165-3.051-7.112,0.421l-19.038,69.805c0,0-34.933,152.434-54.521,244.361
				c-1.037,4.866-7.791,5.466-9.618,0.838c-7.724-19.563-20.077-40.152-20.077-40.152L599.376,561.878
				c-1.788-3.195-6.623-2.21-7.018,1.43l-33.906,311.933c-0.41,3.771-5.511,4.631-7.135,1.203L458.236,679.94
				c-0.056-0.118-0.106-0.24-0.149-0.363L417.03,562.722c-1.372-3.906-7.128-3.049-7.303,1.088l-10.151,240.245
				c-0.006,0.134-0.018,0.267-0.038,0.399l-8.524,56.827c-0.592,3.949-6.119,4.373-7.307,0.561L307.17,616.29
				c-1.256-4.029-7.175-3.25-7.346,0.966l-9.32,229.898c-0.167,4.13-5.907,5.004-7.297,1.112L204.56,628.054
				c-1.385-3.877-7.097-3.029-7.296,1.083L187.9,822.659c-0.188,3.886-5.431,4.97-7.132,1.471
				c-11.975-24.628-37.482-78.373-48.496-111.414c-13.891-41.673-24.86-83.346-37.523-125.019
				c-0.709,11.199-1.11,22.481-1.11,33.859c0,208.054,120.312,387.98,295.142,474.083h466.077
				c146.605-72.202,254.83-210.396,285.967-375.81c-9.878-21.5-29.117-57.425-39.141-75.902
				C1099.871,640.584,1094.807,641.745,1094.626,645.544z"/>
		</g>
		<g>
			<path fill="#4CEAFC" d="M294.63,351.981c-1.434,0-2.794-0.847-3.381-2.253c-0.78-1.867,0.102-4.008,1.968-4.788l266.747-111.324
				c1.87-0.78,4.012,0.104,4.79,1.97c0.779,1.867-0.102,4.008-1.969,4.788L296.039,351.699
				C295.577,351.892,295.1,351.981,294.63,351.981z"/>
			<path fill="#4CEAFC" d="M336.164,397.769c-1.328,0-2.61-0.726-3.259-1.988c-0.926-1.799-0.216-4.005,1.58-4.931l242.464-124.683
				c1.799-0.923,4.007-0.211,4.931,1.584c0.926,1.799,0.216,4.005-1.58,4.931L337.836,397.365
				C337.299,397.64,336.727,397.769,336.164,397.769z"/>
			<path fill="#4CEAFC" d="M273.701,380.795c-1.412,0-2.757-0.819-3.358-2.199c-0.808-1.852,0.038-4.008,1.892-4.82l286.71-125.069
				c1.859-0.805,4.012,0.039,4.82,1.895c0.808,1.852-0.038,4.008-1.892,4.82l-286.71,125.069
				C274.686,380.698,274.189,380.795,273.701,380.795z"/>
			<path fill="#4CEAFC" d="M277.014,406.701c-1.357,0-2.66-0.754-3.295-2.056c-0.887-1.82-0.131-4.012,1.686-4.895l287.658-140.262
				c1.822-0.894,4.012-0.132,4.897,1.684c0.887,1.82,0.13,4.012-1.686,4.895L278.616,406.329
				C278.099,406.583,277.552,406.701,277.014,406.701z"/>
		</g>
		<path fill="#4CEAFC" d="M881.676,431.921c-55.061,0-99.856-44.797-99.856-99.856c0-55.063,44.795-99.86,99.856-99.86
			s99.856,44.797,99.856,99.86C981.532,387.124,936.737,431.921,881.676,431.921z M881.676,236.967
			c-52.437,0-95.097,42.659-95.097,95.097c0,52.435,42.66,95.093,95.097,95.093s95.097-42.659,95.097-95.093
			C976.773,279.626,934.113,236.967,881.676,236.967z"/>
		<path fill="#4CEAFC" d="M281.789,330.588c-36.605,0-66.385-29.782-66.385-66.387c0-36.608,29.781-66.391,66.385-66.391
			c36.607,0,66.387,29.782,66.387,66.391C348.177,300.805,318.396,330.588,281.789,330.588z M281.789,202.572
			c-33.98,0-61.626,27.644-61.626,61.628c0,33.98,27.646,61.624,61.626,61.624c33.982,0,61.628-27.644,61.628-61.624
			C343.417,230.216,315.771,202.572,281.789,202.572z"/>
		<path fill="#4CEAFC" d="M177.108,797.169c-42.019,0-76.203-34.188-76.203-76.206s34.184-76.203,76.203-76.203
			c42.02,0,76.204,34.184,76.204,76.203S219.128,797.169,177.108,797.169z M177.108,649.523c-39.394,0-71.443,32.046-71.443,71.44
			s32.049,71.443,71.443,71.443s71.445-32.049,71.445-71.443S216.502,649.523,177.108,649.523z"/>
		<path fill="#4CEAFC" d="M305.191,1030.818c-29.859,0-54.151-24.294-54.151-54.155c0-29.857,24.292-54.151,54.151-54.151
			c29.861,0,54.153,24.294,54.153,54.151C359.344,1006.525,335.052,1030.818,305.191,1030.818z M305.191,927.276
			c-27.235,0-49.392,22.155-49.392,49.388c0,27.236,22.157,49.392,49.392,49.392s49.394-22.155,49.394-49.392
			C354.584,949.431,332.426,927.276,305.191,927.276z"/>
		<g>
			<g>
				<path fill="#634156" d="M805.218,225.232c4.704,1.833,10.016-0.486,11.857-5.196c1.84-4.709-0.486-10.017-5.196-11.857
					c-9.13-3.566-17.644-6.768-25.672-9.685c-2.664,5.41-4.866,11.197-6.869,16.997
					C787.385,218.401,795.977,221.623,805.218,225.232z"/>
				<path fill="#634156" d="M1028.916,313.188c-4.371-2.549-9.973-1.069-12.517,3.299c-2.546,4.368-1.069,9.973,3.299,12.517
					c9.301,5.421,17.814,10.543,25.669,15.401c3.917-4.599,7.652-9.499,11.115-14.661
					C1048.046,324.52,1038.943,319.032,1028.916,313.188z"/>
			</g>
			<circle fill="#FCAC6F" cx="904.363" cy="293.862" r="123.013"/>
			<path fill="#FC935A" d="M947.754,362.306c-29.709,9.181-59.585,12.747-92.308,16.059c-2.037,0.206-3.416-1.999-2.382-3.766
				c17.493-29.904,52.777-42.018,77.613-64.578c1.964-1.784,0.141-4.981-2.394-4.195c-26.798,8.312-55.674,4.875-84.784,6.297
				c-2.61,0.127-3.619-3.321-1.34-4.598c27.965-15.659,55.41-32.099,77.831-56.074c1.537-1.644,0.179-4.357-2.063-4.158
				c-15.707,1.393-29.803,7.807-45.204,11.948c-2.59,0.696-4.268-2.62-2.197-4.323c19.327-15.896,35.057-35.39,54.734-50.937
				c1.876-1.483,0.748-4.504-1.641-4.405c-11.574,0.477-23.148,2.09-34.722,5.372c-2.76,0.783-4.46-2.881-2.05-4.438
				c11.763-7.604,23.376-15.506,34.608-24.173c1.756-1.355,0.949-4.157-1.25-4.444c-5.186-0.678-10.471-1.042-15.843-1.042
				c-67.938,0-123.013,55.075-123.013,123.013c0,66.5,52.778,120.637,118.727,122.899c0.626,0.021,1.242-0.198,1.718-0.606
				c17.804-15.263,37.372-28.761,48.895-50.305C951.742,363.884,949.885,361.647,947.754,362.306z"/>
			<path fill="#634156" d="M1032.029,315.024c-1.883,3.767-4.021,7.418-6.423,10.83c-0.466,1.893-1.131,3.722-1.874,5.524
				c78.666,46.242,101.649,71.22,104.952,78.99c-17.024,5.617-107.442-19.493-237.236-82.632
				c-129.792-63.137-205.334-118.772-211.452-135.63c7.774-2.067,39.021,0.205,116.409,29.726c3.401-5.55,7.765-10.607,12.87-14.656
				c-132.706-51.505-143.038-30.445-146.424-23.475c-5.172,10.632-2.156,27.192,59.42,69.387
				c41.227,28.252,98.464,60.609,161.168,91.11c62.708,30.505,123.497,55.562,171.171,70.557
				c33.535,10.548,54.577,14.389,67.996,14.387c15.077,0,20.536-4.847,23.271-10.472
				C1149.344,411.541,1159.764,389.929,1032.029,315.024z"/>
		</g>
		<g>
			<circle fill="#FFFFFF" cx="149.421" cy="685.249" r="99.408"/>
			<path fill="#EBD3D3" d="M192.084,734.934c-22.69,10.799-46.166,17.127-71.948,23.583c-1.605,0.402-2.964-1.201-2.343-2.734
				c10.509-25.949,37.315-39.742,54.552-60.674c1.363-1.656-0.467-4-2.402-3.076c-20.463,9.766-43.955,10.377-67.068,14.901
				c-2.072,0.406-3.281-2.235-1.606-3.521c20.541-15.777,40.575-32.117,55.715-53.899c1.038-1.493-0.364-3.505-2.133-3.085
				c-12.399,2.942-22.925,9.711-34.759,14.815c-1.99,0.858-3.718-1.598-2.26-3.201c13.606-14.961,23.916-32.381,37.843-47.103
				c1.328-1.404,0.074-3.689-1.825-3.332c-9.2,1.728-18.268,4.365-27.142,8.336c-2.116,0.947-3.902-1.785-2.156-3.311
				c8.522-7.449,16.889-15.12,24.862-23.358c1.246-1.288,0.275-3.435-1.517-3.409c-4.226,0.061-8.495,0.385-12.79,1.01
				c-54.329,7.905-91.963,58.357-84.058,112.686c7.738,53.179,56.244,90.33,109.245,84.466c0.503-0.056,0.97-0.303,1.303-0.684
				c12.462-14.277,26.539-27.349,33.247-45.918C195.457,735.731,193.712,734.159,192.084,734.934z"/>
		</g>
		<path fill="#4CEAFC" d="M1031.77,650.613c-30.251,0-54.863-24.612-54.863-54.863s24.612-54.863,54.863-54.863
			c30.251,0,54.863,24.612,54.863,54.863S1062.021,650.613,1031.77,650.613z M1031.77,545.651c-27.626,0-50.103,22.474-50.103,50.1
			s22.477,50.1,50.103,50.1c27.626,0,50.103-22.474,50.103-50.1S1059.396,545.651,1031.77,545.651z"/>
		<g>
			<circle fill="#FC523A" cx="1037.075" cy="643.992" r="65.384"/>
			<path fill="#F04230" d="M1065.137,676.672c-14.924,7.103-30.365,11.265-47.323,15.512c-1.056,0.264-1.95-0.79-1.541-1.799
				c6.912-17.068,24.544-26.14,35.881-39.907c0.897-1.089-0.307-2.631-1.58-2.023c-13.459,6.423-28.911,6.825-44.113,9.801
				c-1.363,0.267-2.158-1.47-1.057-2.316c13.511-10.377,26.688-21.124,36.646-35.451c0.683-0.982-0.239-2.305-1.403-2.029
				c-8.155,1.935-15.078,6.387-22.862,9.744c-1.309,0.565-2.445-1.051-1.486-2.106c8.949-9.84,15.731-21.298,24.891-30.981
				c0.873-0.923,0.049-2.426-1.201-2.192c-6.051,1.137-12.016,2.871-17.852,5.483c-1.392,0.623-2.566-1.174-1.418-2.177
				c5.605-4.9,11.109-9.945,16.353-15.363c0.82-0.847,0.181-2.259-0.998-2.242c-2.78,0.04-5.587,0.253-8.413,0.664
				c-35.734,5.2-60.487,38.383-55.288,74.118c5.09,34.978,36.993,59.414,71.855,55.556c0.331-0.037,0.638-0.199,0.857-0.45
				c8.197-9.391,17.456-17.988,21.868-30.202C1067.355,677.196,1066.207,676.162,1065.137,676.672z"/>
		</g>
		<g>
			<circle fill="#FCAC6F" cx="294.676" cy="987.699" r="54.712"/>
			<path fill="#FC935A" d="M321.903,1011.317c-11.485,7.705-23.757,13.04-37.275,18.63c-0.842,0.348-1.711-0.415-1.496-1.3
				c3.634-14.974,17.119-24.641,24.819-37.424c0.609-1.011-0.576-2.14-1.556-1.481c-10.355,6.964-23.097,9.187-35.317,13.51
				c-1.096,0.388-1.966-0.953-1.158-1.788c9.914-10.243,19.507-20.751,25.998-33.829c0.445-0.897-0.48-1.879-1.41-1.508
				c-6.514,2.6-11.7,7.132-17.733,10.863c-1.014,0.627-2.153-0.571-1.488-1.561c6.204-9.241,10.416-19.555,16.814-28.691
				c0.61-0.871-0.256-2.014-1.262-1.667c-4.87,1.681-9.595,3.846-14.107,6.723c-1.076,0.686-2.268-0.658-1.44-1.629
				c4.04-4.742,7.979-9.591,11.657-14.718c0.575-0.801-0.126-1.892-1.1-1.734c-2.296,0.373-4.594,0.893-6.883,1.579
				c-28.944,8.676-45.374,39.173-36.698,68.117c8.493,28.331,37.891,44.655,66.277,37.197c0.27-0.071,0.504-0.243,0.655-0.477
				c5.636-8.776,12.249-17.026,14.407-27.676C323.804,1011.48,322.727,1010.764,321.903,1011.317z"/>
		</g>
		<g>
			<circle fill="#FC523A" cx="286.802" cy="240.327" r="77.081"/>
			<path fill="#F04230" d="M325.16,273.602c-16.18,10.856-33.471,18.372-52.516,26.247c-1.186,0.49-2.41-0.585-2.107-1.832
				c5.119-21.096,24.118-34.715,34.966-52.725c0.858-1.424-0.812-3.015-2.191-2.087c-14.589,9.811-32.54,12.943-49.756,19.034
				c-1.543,0.546-2.77-1.342-1.631-2.519c13.968-14.431,27.483-29.236,36.627-47.66c0.627-1.263-0.677-2.647-1.986-2.125
				c-9.177,3.662-16.484,10.048-24.983,15.305c-1.429,0.884-3.033-0.804-2.096-2.2c8.741-13.019,14.674-27.55,23.688-40.421
				c0.86-1.227-0.361-2.838-1.778-2.349c-6.861,2.369-13.518,5.419-19.874,9.472c-1.516,0.966-3.195-0.927-2.029-2.295
				c5.692-6.68,11.241-13.513,16.423-20.736c0.81-1.129-0.178-2.666-1.55-2.443c-3.235,0.526-6.472,1.258-9.697,2.225
				c-40.778,12.223-63.926,55.19-51.702,95.968c11.965,39.915,53.384,62.913,93.375,52.406c0.38-0.1,0.71-0.342,0.922-0.673
				c7.94-12.364,17.257-23.987,20.297-38.991C327.838,273.831,326.321,272.823,325.16,273.602z"/>
		</g>
		<path fill="#4CEAFC" d="M1065.473,798.023c-16.316,0-29.591-13.277-29.591-29.593s13.275-29.593,29.591-29.593
			s29.591,13.277,29.591,29.593S1081.789,798.023,1065.473,798.023z M1065.473,746.161c-12.279,0-22.268,9.991-22.268,22.27
			s9.989,22.27,22.268,22.27s22.268-9.991,22.268-22.27S1077.752,746.161,1065.473,746.161z"/>
		<path fill="#4CEAFC" d="M643.163,169.915c-16.318,0-29.593-13.273-29.593-29.589s13.275-29.593,29.593-29.593
			c16.316,0,29.591,13.277,29.591,29.593S659.479,169.915,643.163,169.915z M643.163,118.056c-12.279,0-22.27,9.991-22.27,22.27
			c0,12.279,9.991,22.266,22.27,22.266c12.279,0,22.268-9.987,22.268-22.266C665.431,128.047,655.442,118.056,643.163,118.056z"/>
		<path fill="#FFFFFF" d="M955.454,977.272c-9.276,0-16.82-7.545-16.82-16.82c0-9.275,7.545-16.824,16.82-16.824
			c9.275,0,16.82,7.548,16.82,16.824C972.275,969.727,964.73,977.272,955.454,977.272z M955.454,950.951
			c-5.237,0-9.497,4.262-9.497,9.501s4.26,9.497,9.497,9.497c5.237,0,9.497-4.259,9.497-9.497S960.691,950.951,955.454,950.951z"/>
		<path fill="#4CEAFC" d="M406.738,990.43c-9.275,0-16.82-7.545-16.82-16.82c0-9.275,7.545-16.82,16.82-16.82
			s16.82,7.545,16.82,16.82C423.559,982.886,416.014,990.43,406.738,990.43z M406.738,964.113c-5.237,0-9.497,4.259-9.497,9.497
			s4.26,9.497,9.497,9.497c5.237,0,9.497-4.259,9.497-9.497S411.975,964.113,406.738,964.113z"/>
		<path fill="#FFFFFF" d="M197.91,430.798c-9.275,0-16.82-7.545-16.82-16.82s7.545-16.82,16.82-16.82s16.82,7.545,16.82,16.82
			S207.185,430.798,197.91,430.798z M197.91,404.48c-5.237,0-9.497,4.259-9.497,9.497s4.261,9.497,9.497,9.497
			c5.237,0,9.497-4.259,9.497-9.497S203.146,404.48,197.91,404.48z"/>
		<g>
			<g>
				<path fill="#FFFFFF" d="M995.453,863.828c-0.937,0-1.875-0.358-2.591-1.073c-0.338-0.34-0.712-0.712-1.067-1.116
					c-0.129-0.1-0.254-0.207-0.372-0.325l-3.238-3.24c-1.428-1.43-1.428-3.751,0.002-5.178c1.43-1.43,3.749-1.43,5.179,0
					c1.087,1.091,2.001,2.002,2.716,2.807c0.181,0.122,0.352,0.265,0.511,0.426l1.45,1.448c1.429,1.43,1.429,3.747-0.002,5.178
					C997.326,863.47,996.39,863.828,995.453,863.828z"/>
				<path fill="#FFFFFF" d="M961.596,829.969c-0.937,0-1.874-0.358-2.589-1.073l-3.232-3.232c-0.116-0.114-0.224-0.24-0.32-0.368
					c-0.408-0.358-0.785-0.737-1.126-1.076c-1.43-1.43-1.43-3.747-0.002-5.178c1.43-1.43,3.749-1.43,5.179,0l1.438,1.434
					c0.159,0.161,0.3,0.333,0.425,0.515c0.805,0.715,1.722,1.634,2.816,2.728c1.43,1.43,1.43,3.747,0,5.178
					C963.469,829.611,962.533,829.969,961.596,829.969z"/>
			</g>
			<g>
				<path fill="#FFFFFF" d="M1003.434,844.558h-6.615c-2.022,0-3.662-1.638-3.662-3.662s1.639-3.662,3.662-3.662h4.602
					c0.683,0,1.325,0.186,1.872,0.515l0.141-0.515c2.022,0,3.662,1.638,3.662,3.662S1005.456,844.558,1003.434,844.558z"/>
				<path fill="#FFFFFF" d="M955.553,844.558h-4.602c-0.685,0-1.325-0.19-1.874-0.515l-0.141,0.515
					c-2.022,0-3.662-1.638-3.662-3.662s1.639-3.662,3.662-3.662h6.617c2.022,0,3.662,1.638,3.662,3.662
					S957.575,844.558,955.553,844.558z"/>
			</g>
			<g>
				<path fill="#FFFFFF" d="M990.776,829.969c-0.937,0-1.874-0.358-2.589-1.073c-1.43-1.43-1.43-3.747,0-5.178l3.222-3.222h-0.002
					c0.007-0.007,0.014-0.014,0.021-0.021h0.002c0.005-0.007,0.013-0.014,0.02-0.018c0.014-0.018,0.029-0.032,0.043-0.047
					l1.371-1.37c1.43-1.43,3.749-1.43,5.179,0c1.429,1.43,1.429,3.747-0.002,5.178l-1.371,1.373l-0.088-0.082
					c-0.018,0.021-0.036,0.043-0.054,0.064l0.079,0.079c-0.161,0.161-0.334,0.304-0.515,0.425c-0.715,0.805-1.634,1.724-2.728,2.818
					C992.649,829.611,991.712,829.969,990.776,829.969z"/>
				<path fill="#FFFFFF" d="M956.917,863.828c-0.937,0-1.874-0.358-2.589-1.073c-1.43-1.43-1.43-3.747-0.002-5.178
					c0.338-0.336,0.712-0.712,1.116-1.069c0.098-0.129,0.206-0.25,0.324-0.368l3.24-3.243c1.43-1.43,3.749-1.43,5.18,0
					c1.43,1.427,1.43,3.747,0.002,5.178c-1.091,1.091-2.004,2.006-2.805,2.718c-0.125,0.182-0.266,0.354-0.427,0.515l-1.446,1.448
					C958.792,863.47,957.854,863.828,956.917,863.828z"/>
			</g>
			<g>
				<path fill="#FFFFFF" d="M976.185,823.926c-2.022,0-3.662-1.638-3.662-3.662v-4.602c0-0.683,0.188-1.323,0.515-1.87l-0.515-0.143
					c0-2.024,1.639-3.662,3.662-3.662s3.662,1.638,3.662,3.662v6.615C979.846,822.288,978.207,823.926,976.185,823.926z"/>
				<path fill="#FFFFFF" d="M976.185,871.809c-2.022,0-3.662-1.638-3.662-3.662v-6.619c0-2.024,1.639-3.662,3.662-3.662
					s3.662,1.638,3.662,3.662v6.619C979.846,870.171,978.207,871.809,976.185,871.809z"/>
			</g>
		</g>
		<g>
			<g>
				<path fill="#FFFFFF" d="M257.993,875.095c-0.937,0-1.874-0.358-2.589-1.073l-1.437-1.434c-0.159-0.161-0.3-0.333-0.426-0.515
					c-0.805-0.715-1.722-1.634-2.816-2.728c-1.43-1.43-1.43-3.747,0-5.178s3.747-1.43,5.178,0l3.232,3.232
					c0.116,0.114,0.223,0.24,0.32,0.368c0.408,0.358,0.785,0.737,1.126,1.076c1.43,1.43,1.43,3.747,0.002,5.178
					C259.868,874.737,258.93,875.095,257.993,875.095z"/>
				<path fill="#FFFFFF" d="M224.136,841.236c-0.937,0-1.874-0.358-2.589-1.073l-3.229-3.225c-0.052-0.054-0.1-0.104-0.148-0.157
					c-0.077-0.071-0.156-0.147-0.234-0.225l-1.069-1.069c-1.429-1.43-1.429-3.747,0.002-5.178s3.749-1.43,5.179,0l1.439,1.441
					c0.157,0.161,0.299,0.329,0.422,0.508c0.803,0.715,1.722,1.634,2.816,2.728c1.43,1.43,1.43,3.747,0,5.178
					C226.01,840.879,225.073,841.236,224.136,841.236z"/>
			</g>
			<g>
				<path fill="#FFFFFF" d="M265.974,855.829h-6.617c-2.022,0-3.662-1.638-3.662-3.662c0-2.024,1.639-3.662,3.662-3.662h4.602
					c0.685,0,1.325,0.19,1.874,0.515l0.141-0.515c2.022,0,3.662,1.638,3.662,3.662C269.635,854.191,267.996,855.829,265.974,855.829
					z"/>
				<path fill="#FFFFFF" d="M218.093,855.829h-4.602c-0.685,0-1.325-0.19-1.874-0.515l-0.141,0.515
					c-2.022,0-3.662-1.638-3.662-3.662c0-2.024,1.639-3.662,3.662-3.662h6.617c2.022,0,3.662,1.638,3.662,3.662
					C221.754,854.191,220.115,855.829,218.093,855.829z"/>
			</g>
			<g>
				<path fill="#FFFFFF" d="M253.314,841.236c-0.937,0-1.874-0.358-2.589-1.073c-1.43-1.43-1.43-3.747,0-5.178
					c1.089-1.091,2.002-2.002,2.805-2.718c0.122-0.175,0.259-0.343,0.415-0.501l0.077,0.075c0.004-0.004,0.007-0.007,0.011-0.007
					l-0.077-0.079l1.446-1.448c1.43-1.43,3.749-1.43,5.179,0s1.43,3.747,0.002,5.178c-0.34,0.34-0.713,0.712-1.119,1.069
					c-0.097,0.129-0.2,0.25-0.315,0.365l-0.054-0.05c-0.004,0-0.007,0.004-0.011,0.007l0.052,0.054l-3.234,3.232
					C255.188,840.879,254.251,841.236,253.314,841.236z"/>
				<path fill="#FFFFFF" d="M219.457,875.095c-0.937,0-1.875-0.358-2.591-1.073c-1.429-1.43-1.429-3.747,0.002-5.178
					c0.334-0.336,0.704-0.704,1.103-1.055c0.097-0.129,0.204-0.254,0.322-0.368l0.052,0.05l0,0l-0.052-0.054l3.254-3.25
					c1.43-1.43,3.747-1.43,5.178,0s1.43,3.747,0,5.178l-3.254,3.254l0,0l0,0c-0.004,0.004-0.007,0.007-0.011,0.011l-1.414,1.412
					C221.331,874.737,220.394,875.095,219.457,875.095z"/>
			</g>
			<g>
				<path fill="#FFFFFF" d="M238.725,835.193c-2.022,0-3.662-1.638-3.662-3.662v-4.602c0-0.683,0.188-1.323,0.515-1.87l-0.515-0.143
					c0-2.024,1.639-3.662,3.662-3.662c2.022,0,3.662,1.638,3.662,3.662v6.615C242.386,833.555,240.747,835.193,238.725,835.193z"/>
				<path fill="#FFFFFF" d="M238.725,883.076c-2.022,0-3.662-1.638-3.662-3.662v-6.615c0-2.024,1.639-3.662,3.662-3.662
					c2.022,0,3.662,1.638,3.662,3.662v4.602c0,0.683-0.188,1.323-0.515,1.87l0.515,0.143
					C242.386,881.438,240.747,883.076,238.725,883.076z"/>
			</g>
		</g>
		<g>
			<g>
				<path fill="#FFFFFF" d="M520.844,220.022c-0.937,0-1.874-0.358-2.589-1.073c-0.708-0.708-1.361-1.359-1.908-1.974
					c-0.157-0.114-0.307-0.243-0.449-0.383l-5.292-5.292c-1.43-1.43-1.43-3.747,0-5.178s3.747-1.43,5.178,0
					c2.072,2.07,3.604,3.604,4.677,4.795c0.215,0.136,0.417,0.3,0.604,0.486l2.367,2.367c1.43,1.43,1.43,3.747,0,5.178
					C522.718,219.664,521.781,220.022,520.844,220.022z"/>
				<path fill="#FFFFFF" d="M465.502,164.68c-0.937,0-1.874-0.358-2.589-1.073c-2.158-2.156-3.731-3.729-4.809-4.942
					c-0.147-0.104-0.293-0.218-0.443-0.343l-0.016,0.014c-0.054-0.054-0.107-0.111-0.157-0.168c-0.082-0.075-0.166-0.154-0.25-0.236
					l-1.972-1.974c-1.43-1.43-1.43-3.747,0-5.178s3.747-1.43,5.178,0l2.308,2.306c0.007,0.007,0.014,0.014,0.021,0.021l0,0
					c0.002,0,0.002,0,0.002,0v0.004l5.317,5.317c1.43,1.43,1.43,3.747,0,5.178C467.376,164.323,466.439,164.68,465.502,164.68z"/>
			</g>
			<g>
				<path fill="#FFFFFF" d="M533.888,188.527h-10.815c-2.022,0-3.662-1.638-3.662-3.662c0-2.024,1.64-3.662,3.662-3.662h7.523
					c1.089,0,2.067,0.476,2.737,1.23l0.554-1.23c2.022,0,3.662,1.638,3.662,3.662C537.55,186.889,535.91,188.527,533.888,188.527z"
					/>
				<path fill="#FFFFFF" d="M455.624,188.527h-7.523c-1.089,0-2.067-0.476-2.737-1.23l-0.554,1.23c-2.022,0-3.662-1.638-3.662-3.662
					c0-2.024,1.639-3.662,3.662-3.662h10.815c2.022,0,3.662,1.638,3.662,3.662C459.286,186.889,457.646,188.527,455.624,188.527z"/>
			</g>
			<g>
				<path fill="#FFFFFF" d="M513.195,164.68c-0.937,0-1.874-0.358-2.589-1.073c-1.43-1.43-1.43-3.747,0-5.178l5.317-5.317
					c0,0,0-0.004,0.002-0.004c0.007-0.007,0.014-0.014,0.021-0.021l2.308-2.306c1.43-1.43,3.747-1.43,5.178,0s1.43,3.747,0,5.178
					c-0.871,0.869-1.654,1.656-2.392,2.267l0.063,0.061l-0.064-0.061c-0.07,0.057-0.138,0.114-0.207,0.168
					c-1.08,1.248-2.725,2.893-5.047,5.213C515.069,164.323,514.132,164.68,513.195,164.68z"/>
				<path fill="#FFFFFF" d="M457.854,220.022c-0.937,0-1.874-0.358-2.589-1.073c-1.43-1.43-1.43-3.747,0-5.178l2.344-2.346
					c0.007-0.007,0.014-0.011,0.02-0.018l0.016-0.014c0.177-0.172,0.368-0.322,0.57-0.454c1.074-1.194,2.614-2.732,4.699-4.817
					c1.43-1.43,3.747-1.43,5.178,0s1.43,3.747,0,5.178l-5.272,5.274c-0.007,0.007-0.016,0.014-0.023,0.021l-0.011,0.011
					c-0.132,0.129-0.272,0.243-0.418,0.35c-0.552,0.622-1.209,1.277-1.924,1.992S458.791,220.022,457.854,220.022z"/>
			</g>
			<g>
				<path fill="#FFFFFF" d="M489.349,154.8c-2.022,0-3.662-1.638-3.662-3.662v-7.52c0-1.091,0.476-2.07,1.232-2.739l-1.232-0.554
					c0-2.024,1.639-3.662,3.662-3.662s3.662,1.638,3.662,3.662v10.813C493.01,153.163,491.371,154.8,489.349,154.8z"/>
				<path fill="#FFFFFF" d="M489.349,233.066c-2.022,0-3.662-1.638-3.662-3.662v-10.817c0-2.024,1.639-3.662,3.662-3.662
					s3.662,1.638,3.662,3.662v7.523c0,1.091-0.476,2.07-1.232,2.739l1.232,0.554C493.01,231.429,491.371,233.066,489.349,233.066z"
					/>
			</g>
		</g>
		<g>
			<g>
				<path fill="#FFFFFF" d="M226.769,546.509c-0.937,0-1.874-0.358-2.589-1.073c-0.62-0.619-1.21-1.209-1.718-1.784
					c-0.15-0.107-0.295-0.229-0.431-0.365h0.002l-4.859-4.859c-1.43-1.43-1.43-3.747,0-5.178s3.747-1.43,5.178,0
					c1.863,1.863,3.266,3.265,4.268,4.373c0.204,0.136,0.397,0.29,0.576,0.468l2.163,2.167c1.43,1.43,1.43,3.747,0,5.178
					C228.643,546.151,227.706,546.509,226.769,546.509z"/>
				<path fill="#FFFFFF" d="M176.058,495.794c-0.937,0-1.874-0.358-2.589-1.073l-4.824-4.824c-0.007-0.007-0.013-0.011-0.02-0.018
					l-0.023-0.025c-0.007-0.007-0.014-0.014-0.021-0.021c-0.023-0.021-0.045-0.043-0.068-0.068l-2.052-2.052
					c-1.43-1.43-1.43-3.747,0-5.178s3.747-1.43,5.178,0l2.054,2.056l-0.091,0.1c0.03,0.025,0.059,0.05,0.089,0.075l0.091-0.089
					c0.179,0.182,0.336,0.379,0.472,0.583c1.112,1.001,2.521,2.41,4.393,4.284c1.43,1.43,1.43,3.747,0,5.178
					C177.932,495.437,176.995,495.794,176.058,495.794z"/>
			</g>
			<g>
				<path fill="#FFFFFF" d="M238.725,517.646h-9.912c-2.022,0-3.662-1.638-3.662-3.662c0-2.024,1.639-3.662,3.662-3.662h6.894
					c1.007,0,1.918,0.408,2.58,1.062l0.438-1.062c2.022,0,3.662,1.638,3.662,3.662C242.386,516.008,240.747,517.646,238.725,517.646
					z"/>
				<path fill="#FFFFFF" d="M167.006,517.646h-6.894c-1.007,0-1.918-0.408-2.58-1.062l-0.438,1.062
					c-2.022,0-3.662-1.638-3.662-3.662c0-2.024,1.639-3.662,3.662-3.662h9.912c2.022,0,3.662,1.638,3.662,3.662
					C170.668,516.008,169.028,517.646,167.006,517.646z"/>
			</g>
			<g>
				<path fill="#FFFFFF" d="M219.763,495.794c-0.937,0-1.874-0.358-2.589-1.073c-1.43-1.43-1.43-3.747,0-5.178l4.822-4.824h0.002
					l0,0c0.004-0.004,0.005-0.007,0.009-0.011l2.174-2.174c1.427-1.43,3.747-1.43,5.178,0s1.43,3.747,0,5.178l-2.124,2.124
					c-0.004,0.004-0.007,0.007-0.011,0.011l0,0l0,0l0,0l-4.872,4.874C221.636,495.437,220.7,495.794,219.763,495.794z"/>
				<path fill="#FFFFFF" d="M169.05,546.509c-0.937,0-1.874-0.358-2.589-1.073c-1.43-1.43-1.43-3.747,0-5.178l2.144-2.145
					c0.009-0.011,0.018-0.018,0.029-0.029l0,0c0.066-0.064,0.132-0.125,0.202-0.182c0.107-0.122,0.223-0.243,0.347-0.368
					l4.287-4.284c1.43-1.43,3.747-1.43,5.178,0s1.43,3.747,0,5.178l-4.836,4.834c-0.005,0.004-0.009,0.011-0.013,0.014l-0.02,0.018
					c-0.129,0.125-0.265,0.236-0.406,0.34c-0.511,0.579-1.107,1.176-1.734,1.802C170.925,546.151,169.987,546.509,169.05,546.509z"
					/>
			</g>
			<g>
				<path fill="#FFFFFF" d="M197.91,486.744c-2.022,0-3.662-1.638-3.662-3.662v-6.894c0-1.008,0.406-1.92,1.062-2.582l-1.062-0.436
					c0-2.024,1.639-3.662,3.662-3.662c2.022,0,3.662,1.638,3.662,3.662v9.912C201.571,485.106,199.932,486.744,197.91,486.744z"/>
				<path fill="#FFFFFF" d="M197.91,558.463c-2.022,0-3.662-1.638-3.662-3.662v-9.912c0-2.024,1.639-3.662,3.662-3.662
					c2.022,0,3.662,1.638,3.662,3.662v6.894c0,1.005-0.406,1.917-1.064,2.578l1.064,0.44
					C201.571,556.825,199.932,558.463,197.91,558.463z"/>
			</g>
		</g>
		<g>
			<circle fill="#FFFFFF" cx="582.949" cy="245.495" r="23.19"/>
			<path fill="#FFFFFF" d="M582.898,270.519c-5.507,0-10.827-1.806-15.256-5.231c-5.287-4.087-8.664-9.991-9.511-16.62
				c-1.749-13.684,7.963-26.242,21.648-27.991c6.628-0.844,13.189,0.937,18.479,5.027c5.287,4.087,8.664,9.991,9.511,16.62
				c1.749,13.684-7.963,26.242-21.648,27.991C585.043,270.451,583.967,270.519,582.898,270.519z M582.994,224.134
				c-0.914,0-1.833,0.057-2.752,0.175c-11.682,1.491-19.972,12.211-18.479,23.893c0.722,5.66,3.606,10.699,8.119,14.189
				c4.516,3.49,10.135,5.013,15.774,4.291c11.682-1.491,19.972-12.211,18.479-23.893c-0.722-5.66-3.606-10.699-8.119-14.189
				C592.237,225.679,587.694,224.134,582.994,224.134z"/>
		</g>
		<path fill="#FFFFFF" d="M976.185,459.883c-10.219,0-18.535-8.317-18.535-18.537c0-10.219,8.315-18.533,18.535-18.533
			s18.535,8.314,18.535,18.533C994.72,451.566,986.404,459.883,976.185,459.883z M976.185,430.136
			c-6.182,0-11.212,5.027-11.212,11.21s5.029,11.214,11.212,11.214c6.182,0,11.212-5.031,11.212-11.214
			S982.367,430.136,976.185,430.136z"/>
		<g>
			<g>
				<path fill="#FFFFFF" d="M928.381,584.776c-0.937,0-1.874-0.358-2.589-1.073l-10.679-10.677c-1.43-1.43-1.43-3.747,0-5.178
					s3.747-1.43,5.178,0l10.679,10.677c1.43,1.43,1.43,3.747,0,5.178C930.254,584.419,929.317,584.776,928.381,584.776z"/>
				<path fill="#FFFFFF" d="M881.676,538.074c-0.937,0-1.874-0.358-2.589-1.073l-10.679-10.677c-1.43-1.43-1.43-3.747,0-5.178
					s3.747-1.43,5.178,0l10.679,10.677c1.43,1.43,1.43,3.747,0,5.178C883.55,537.716,882.613,538.074,881.676,538.074z"/>
			</g>
			<g>
				<path fill="#FFFFFF" d="M940.265,556.088h-15.102c-2.022,0-3.662-1.638-3.662-3.662s1.639-3.662,3.662-3.662h15.102
					c2.022,0,3.662,1.638,3.662,3.662S942.287,556.088,940.265,556.088z"/>
				<path fill="#FFFFFF" d="M874.215,556.088h-15.102c-2.022,0-3.662-1.638-3.662-3.662s1.639-3.662,3.662-3.662h15.102
					c2.022,0,3.662,1.638,3.662,3.662S876.237,556.088,874.215,556.088z"/>
			</g>
			<g>
				<path fill="#FFFFFF" d="M917.702,538.074c-0.937,0-1.874-0.358-2.589-1.073c-1.43-1.43-1.43-3.747,0-5.178l10.679-10.677
					c1.43-1.43,3.747-1.43,5.178,0s1.43,3.747,0,5.178l-10.679,10.677C919.575,537.716,918.638,538.074,917.702,538.074z"/>
				<path fill="#FFFFFF" d="M870.997,584.776c-0.937,0-1.874-0.358-2.589-1.073c-1.43-1.43-1.43-3.747,0-5.178l10.679-10.677
					c1.43-1.43,3.747-1.43,5.178,0s1.43,3.747,0,5.178l-10.679,10.677C872.871,584.419,871.934,584.776,870.997,584.776z"/>
			</g>
			<g>
				<path fill="#FFFFFF" d="M899.689,530.611c-2.022,0-3.662-1.638-3.662-3.662v-15.1c0-2.024,1.639-3.662,3.662-3.662
					s3.662,1.638,3.662,3.662v15.1C903.35,528.973,901.711,530.611,899.689,530.611z"/>
				<path fill="#FFFFFF" d="M899.689,596.662c-2.022,0-3.662-1.638-3.662-3.662v-15.1c0-2.024,1.639-3.662,3.662-3.662
					s3.662,1.638,3.662,3.662v15.1C903.35,595.025,901.711,596.662,899.689,596.662z"/>
			</g>
		</g>
	</g>
	<g>
		<path fill="#634156" d="M928.475,1106.624c0,0-52.177-84.216-183.078-122.662s-374.395,8.259-430.234,122.662H928.475z"/>
		<path fill="#5A384D" d="M691.271,1051.701c23.225-16.59,25.388-45.209,22.869-74.954c-55.737-9.828-124.565-7.456-189.846,6.149
			c4.086,21.168,10.437,41.854,24.177,61.482C581.424,1091.978,654.656,1084.655,691.271,1051.701z"/>
		<path fill="#FCAC6F" d="M692.187,925.589c0,0,13.731,77.902-10.069,108.472c-23.8,30.569-83.275,40.43-113.335,6.106
			c-27.969-31.936-21.27-165.18-21.27-165.18L692.187,925.589z"/>
		<path fill="#5A384D" d="M798.021,616.992c0,0,100.574-129.292-34.128-242.733s-341.36-2.667-386.48,51.288
			s18.024,155.668,18.024,155.668L798.021,616.992z"/>
		<path fill="#FCD290" d="M430.155,777.14c0,0,133.699,153.167,236.606,181.388s285.508-56.989,225.95-217.445
			c-59.558-160.456-233.084-291-233.084-291S483.12,393.38,419.365,506.674S430.155,777.14,430.155,777.14z"/>
		<path fill="#5A384D" d="M550.401,864.787c0,0,32.057-30.524,7.823-89.99c-24.233-59.466-67.275-105.084-67.275-105.084
			s76.57-24.515,37.994-130.384c0,0,54.626,23.275,113.836-37.735c0,0,54.12,60.943,114.298,9.937c0,0,40.333-27.073-10.207-93.973
			s-151.425-104.285-257.758-64.918S260.571,508.286,267.352,641.67c6.781,133.384,123.016,339.463,249.92,278.881
			C572.594,894.141,550.401,864.787,550.401,864.787z"/>
		<path fill="#502D43" d="M428.859,822.563c-8.245-8.245,12.391-57.748,23.197-81.928c1.463-3.273-2.472-6.292-5.251-4.027
			l-76.9,62.659c-2.749,2.24-6.662-0.696-5.28-3.961l70.203-165.933c1.361-3.216-2.43-6.148-5.201-4.024l-90.406,69.312
			c-2.696,2.067-6.423-0.662-5.267-3.856l68.594-189.451c1.186-3.276-2.735-6.004-5.394-3.754l-72.571,61.407
			c-2.829,2.394-6.912-0.802-5.241-4.11c15.29-30.264,49.444-99.186,64.562-140.279C316.201,470.64,262.808,552.294,267.352,641.67
			c6.781,133.384,123.016,339.463,249.92,278.881c29.843-14.247,37.116-29.341,37.497-40.231
			C506.707,869.098,460.368,858.01,428.859,822.563z"/>
		<polygon fill="#50BAC9" points="519.818,819.101 602.092,708.06 574.468,651.403 455.794,821.331 		"/>
		<path fill="#5A384D" d="M785.66,551.536l-231.691,98.768c-10.007,4.266-14.019,16.33-8.56,25.739l62.001,106.87
			c4.736,8.164,14.95,11.319,23.466,7.25l232.301-111.016c9.92-4.741,13.359-17.156,7.292-26.325L807.857,558.2
			C803.036,550.913,793.697,548.109,785.66,551.536z"/>
		<path fill="#634156" d="M789.481,535.714l-225.882,96.292c-9.756,4.159-13.667,15.921-8.346,25.094l60.447,104.19
			c4.618,7.959,14.575,11.036,22.878,7.068l226.476-108.232c9.671-4.622,13.024-16.726,7.109-25.665l-61.041-92.25
			C806.422,535.106,797.318,532.373,789.481,535.714z"/>
		<path fill="#FCD290" d="M801.008,718.292c0,0-3.716-23.146-15.314-26.06c-26.379-6.627-33.991,44.134-33.991,44.134
			L801.008,718.292z"/>
		<polygon fill="#5A384D" points="571.464,648.555 796.156,552.77 856.479,643.933 631.232,751.578 		"/>
		<path fill="#FC523A" d="M748.505,837.49c6.022,22.762,33.488,33.314,65.714,24.081c8.345-2.391,18.282-9.941,25.377-20.399
			C816.141,815.931,773.99,815.832,748.505,837.49z"/>
		<path fill="#634156" d="M836.921,781.521c-26.338-32.044-85.764-4.933-89.516,42.757c-0.375,4.763,0.031,9.176,1.099,13.213
			c25.486-21.659,67.636-21.56,91.091,3.682C850.309,825.382,854.532,802.946,836.921,781.521z"/>
		<path fill="#FCD290" d="M556.084,835.805c0,0-34.767-55.835-87.695-24.309s-1.018,108.678,48.884,109.054
			C567.174,920.926,585.745,874.412,556.084,835.805z"/>
		<path fill="#FCAC6F" d="M791.86,891.132c-4.448,0-8.845-0.354-13.118-1.08c-2.989-0.508-5.003-3.343-4.495-6.333
			c0.51-2.993,3.338-5.01,6.336-4.495c21.446,3.626,47.538-3.955,63.434-18.479c2.238-2.042,5.712-1.892,7.759,0.35
			c2.045,2.238,1.89,5.714-0.35,7.759C836.082,882.879,813.388,891.132,791.86,891.132z"/>
		<path fill="#50BAC9" d="M630.073,688.48l0.626,1.235c1.791,3.536,6.057,5.024,9.659,3.369l171.134-78.612
			c3.936-1.808,5.474-6.602,3.325-10.362l0,0c-1.885-3.299-5.969-4.626-9.434-3.066l-171.76,77.377
			C629.788,680.149,628.172,684.729,630.073,688.48z"/>
	</g>
</g>
</svg>
